<svg width="100%" height="100%" viewBox="0 0 1920 1080" xmlns="http://www.w3.org/2000/svg">
  <defs>
    <filter id="blur">
      <feGaussianBlur stdDeviation="0.5"/>
    </filter>
  </defs>
  <g fill="none" stroke="#ffffff" stroke-width="1" stroke-opacity="0.08" filter="url(#blur)">
    <!-- ID Card -->
    <rect x="50" y="50" width="40" height="25" rx="3"/>
    <circle cx="65" cy="62" r="4"/>
    <path d="M55 70 L75 70"/>
    <path d="M55 75 L70 75"/>
    <path d="M55 80 L65 80"/>
    
    <!-- Settings with Checkmark -->
    <circle cx="150" cy="62" r="8"/>
    <path d="M150 58 L150 66 M146 62 L154 62"/>
    <path d="M145 58 L155 58 M145 66 L155 66"/>
    <path d="M147 60 L153 60 M147 64 L153 64"/>
    <path d="M148 59 L152 59 M148 65 L152 65"/>
    <path d="M149 61 L151 61 M149 63 L151 63"/>
    
    <!-- Unlocked Padlock -->
    <rect x="220" y="58" width="20" height="15" rx="2"/>
    <path d="M230 50 Q230 45 235 45 L235 45"/>
    
    <!-- Key -->
    <circle cx="280" cy="62" r="3"/>
    <path d="M283 62 L295 62"/>
    <path d="M295 60 L295 64"/>
    
    <!-- Locked Padlock -->
    <rect x="320" y="58" width="20" height="15" rx="2"/>
    <path d="M330 50 Q330 45 335 45 L335 45"/>
    <path d="M330 50 Q330 55 335 55"/>
    
    <!-- Envelope with Padlock -->
    <rect x="50" y="120" width="40" height="25" rx="2"/>
    <path d="M50 125 L70 135 L90 125"/>
    <rect x="65" y="130" width="10" height="8" rx="1"/>
    <path d="M70 132 Q70 130 75 130 Q80 130 80 132"/>
    
    <!-- Key -->
    <circle cx="150" cy="132" r="3"/>
    <path d="M153 132 L165 132"/>
    <path d="M165 130 L165 134"/>
    
    <!-- Laptop with Padlock -->
    <rect x="200" y="120" width="50" height="30" rx="3"/>
    <rect x="210" y="130" width="30" height="15" rx="1"/>
    <rect x="220" y="135" width="10" height="6" rx="1"/>
    <path d="M225 137 Q225 135 230 135 Q235 135 235 137"/>
    
    <!-- Monitor with Login Form -->
    <rect x="300" y="120" width="50" height="35" rx="3"/>
    <rect x="310" y="130" width="30" height="20" rx="1"/>
    <circle cx="320" cy="140" r="3"/>
    <rect x="330" y="135" width="20" height="8" rx="1"/>
    <rect x="330" y="150" width="20" height="8" rx="1"/>
    <path d="M335 152 L345 152"/>
    
    <!-- Two People -->
    <circle cx="50" cy="200" r="6"/>
    <circle cx="70" cy="200" r="6"/>
    <path d="M44 210 Q50 220 56 210"/>
    <path d="M64 210 Q70 220 76 210"/>
    
    <!-- Fingerprint -->
    <path d="M120 200 Q130 195 140 200 Q150 205 160 200 Q170 195 180 200"/>
    <path d="M125 205 Q135 200 145 205 Q155 210 165 205 Q175 200 185 205"/>
    <path d="M130 210 Q140 205 150 210 Q160 215 170 210 Q180 205 190 210"/>
    
    <!-- Shield with Checkmark -->
    <path d="M220 190 Q220 180 230 180 Q240 180 240 190 Q240 210 230 220 Q220 210 220 190"/>
    <path d="M225 200 L230 205 L235 195"/>
    
    <!-- Locked Padlock -->
    <rect x="280" y="195" width="20" height="15" rx="2"/>
    <path d="M290 185 Q290 180 295 180 L295 180"/>
    <path d="M290 185 Q290 190 295 190"/>
    
    <!-- Shield with Checkmark -->
    <path d="M330 190 Q330 180 340 180 Q350 180 350 190 Q350 210 340 220 Q330 210 330 190"/>
    <path d="M335 200 L340 205 L345 195"/>
    
    <!-- Large Locked Padlock -->
    <rect x="50" y="280" width="30" height="20" rx="3"/>
    <path d="M65 265 Q65 255 70 255 L70 255"/>
    <path d="M65 265 Q65 270 70 270"/>
    
    <!-- Person with Checkmark -->
    <circle cx="120" cy="290" r="8"/>
    <path d="M112 305 Q120 320 128 305"/>
    <path d="M115 300 L120 305 L125 295"/>
    
    <!-- Person -->
    <circle cx="170" cy="290" r="8"/>
    <path d="M162 305 Q170 320 178 305"/>
    
    <!-- Password Field -->
    <rect x="220" y="285" width="40" height="10" rx="2"/>
    <path d="M225 290 L235 290 M240 290 L250 290 M255 290 L265 290"/>
    
    <!-- Password Field -->
    <rect x="300" y="285" width="40" height="10" rx="2"/>
    <path d="M305 290 L315 290 M320 290 L330 290 M335 290 L345 290"/>
    
    <!-- Key -->
    <circle cx="380" cy="290" r="4"/>
    <path d="M384 290 L400 290"/>
    <path d="M400 285 L400 295"/>
    
    <!-- ID Card -->
    <rect x="430" y="280" width="40" height="25" rx="3"/>
    <circle cx="445" cy="292" r="4"/>
    <path d="M435 300 L455 300"/>
    <path d="M435 305 L450 305"/>
    <path d="M435 310 L445 310"/>
    
    <!-- Arch/Doorway -->
    <path d="M500 300 Q500 280 520 280 Q540 280 540 300 L540 320 L500 320 Z"/>
    
    <!-- Checkmark Box -->
    <rect x="570" y="285" width="15" height="15" rx="2"/>
    <path d="M575 290 L580 295 L585 285"/>
    
    <!-- Smartphone with Login Screen -->
    <rect x="620" y="280" width="20" height="35" rx="3"/>
    <rect x="625" y="290" width="10" height="15" rx="1"/>
    <circle cx="630" cy="295" r="2"/>
    <circle cx="632" cy="305" r="1"/>
    <circle cx="635" cy="305" r="1"/>
    <circle cx="638" cy="305" r="1"/>
    
    <!-- More patterns distributed across the canvas -->
    <rect x="800" y="50" width="40" height="25" rx="3"/>
    <circle cx="815" cy="62" r="4"/>
    <path d="M805 70 L825 70"/>
    <path d="M805 75 L820 75"/>
    <path d="M805 80 L815 80"/>
    <circle cx="900" cy="62" r="8"/>
    <path d="M900 58 L900 66 M896 62 L904 62"/>
    <rect x="1000" y="58" width="20" height="15" rx="2"/>
    <path d="M1010 50 Q1010 45 1015 45"/>
    <circle cx="1100" cy="62" r="3"/>
    <path d="M1103 62 L1115 62"/>
    <path d="M1115 60 L1115 64"/>
    <rect x="1200" y="58" width="20" height="15" rx="2"/>
    <path d="M1210 50 Q1210 45 1215 45"/>
    <path d="M1210 50 Q1210 55 1215 55"/>
    <rect x="800" y="120" width="40" height="25" rx="2"/>
    <path d="M800 125 L820 135 L840 125"/>
    <rect x="815" y="130" width="10" height="8" rx="1"/>
    <path d="M820 132 Q820 130 825 130 Q830 130 830 132"/>
    <circle cx="900" cy="132" r="3"/>
    <path d="M903 132 L915 132"/>
    <path d="M915 130 L915 134"/>
    <rect x="1000" y="120" width="50" height="30" rx="3"/>
    <rect x="1010" y="130" width="30" height="15" rx="1"/>
    <rect x="1020" y="135" width="10" height="6" rx="1"/>
    <path d="M1025 137 Q1025 135 1030 135 Q1035 135 1035 137"/>
    <rect x="1100" y="120" width="50" height="35" rx="3"/>
    <rect x="1110" y="130" width="30" height="20" rx="1"/>
    <circle cx="1120" cy="140" r="3"/>
    <rect x="1130" y="135" width="20" height="8" rx="1"/>
    <rect x="1130" y="150" width="20" height="8" rx="1"/>
    <path d="M1135 152 L1145 152"/>
    <circle cx="800" cy="200" r="6"/>
    <circle cx="820" cy="200" r="6"/>
    <path d="M794 210 Q800 220 806 210"/>
    <path d="M814 210 Q820 220 826 210"/>
    <path d="M870 200 Q880 195 890 200 Q900 205 910 200"/>
    <path d="M875 205 Q885 200 895 205 Q905 210 915 205"/>
    <path d="M880 210 Q890 205 900 210 Q910 215 920 210"/>
    <path d="M970 190 Q970 180 980 180 Q990 180 990 190 Q990 210 980 220 Q970 210 970 190"/>
    <path d="M975 200 L980 205 L985 195"/>
    <rect x="1000" y="195" width="20" height="15" rx="2"/>
    <path d="M1010 185 Q1010 180 1015 180"/>
    <path d="M1010 185 Q1010 190 1015 190"/>
    <path d="M1060 190 Q1060 180 1070 180 Q1080 180 1080 190 Q1080 210 1070 220 Q1060 210 1060 190"/>
    <path d="M1065 200 L1070 205 L1075 195"/>
    <rect x="800" y="280" width="30" height="20" rx="3"/>
    <path d="M815 265 Q815 255 820 255"/>
    <path d="M815 265 Q815 270 820 270"/>
    <circle cx="870" cy="290" r="8"/>
    <path d="M862 305 Q870 320 878 305"/>
    <path d="M865 300 L870 305 L875 295"/>
    <circle cx="920" cy="290" r="8"/>
    <path d="M912 305 Q920 320 928 305"/>
    <rect x="970" y="285" width="40" height="10" rx="2"/>
    <path d="M975 290 L985 290 M990 290 L1000 290 M1005 290 L1015 290"/>
    <rect x="1050" y="285" width="40" height="10" rx="2"/>
    <path d="M1055 290 L1065 290 M1070 290 L1080 290 M1085 290 L1095 290"/>
    <circle cx="1150" cy="290" r="4"/>
    <path d="M1154 290 L1170 290"/>
    <path d="M1170 285 L1170 295"/>
    <rect x="1200" y="280" width="40" height="25" rx="3"/>
    <circle cx="1215" cy="292" r="4"/>
    <path d="M1205 300 L1225 300"/>
    <path d="M1205 305 L1220 305"/>
    <path d="M1205 310 L1215 310"/>
    <path d="M800 300 Q800 280 820 280 Q840 280 840 300 L840 320 L800 320 Z"/>
    <rect x="870" y="285" width="15" height="15" rx="2"/>
    <path d="M875 290 L880 295 L885 285"/>
    <rect x="920" y="280" width="20" height="35" rx="3"/>
    <rect x="925" y="290" width="10" height="15" rx="1"/>
    <circle cx="930" cy="295" r="2"/>
    <circle cx="932" cy="305" r="1"/>
    <circle cx="935" cy="305" r="1"/>
    <circle cx="938" cy="305" r="1"/>
    
    <!-- Additional patterns for full coverage -->
    <rect x="1400" y="50" width="40" height="25" rx="3"/>
    <circle cx="1415" cy="62" r="4"/>
    <path d="M1405 70 L1425 70"/>
    <path d="M1405 75 L1420 75"/>
    <path d="M1405 80 L1415 80"/>
    <circle cx="1500" cy="62" r="8"/>
    <path d="M1500 58 L1500 66 M1496 62 L1504 62"/>
    <rect x="1600" y="58" width="20" height="15" rx="2"/>
    <path d="M1610 50 Q1610 45 1615 45"/>
    <circle cx="1700" cy="62" r="3"/>
    <path d="M1703 62 L1715 62"/>
    <path d="M1715 60 L1715 64"/>
    <rect x="1800" y="58" width="20" height="15" rx="2"/>
    <path d="M1810 50 Q1810 45 1815 45"/>
    <path d="M1810 50 Q1810 55 1815 55"/>
    <rect x="1400" y="120" width="40" height="25" rx="2"/>
    <path d="M1400 125 L1420 135 L1440 125"/>
    <rect x="1415" y="130" width="10" height="8" rx="1"/>
    <path d="M1420 132 Q1420 130 1425 130 Q1430 130 1430 132"/>
    <circle cx="1500" cy="132" r="3"/>
    <path d="M1503 132 L1515 132"/>
    <path d="M1515 130 L1515 134"/>
    <rect x="1600" y="120" width="50" height="30" rx="3"/>
    <rect x="1610" y="130" width="30" height="15" rx="1"/>
    <rect x="1620" y="135" width="10" height="6" rx="1"/>
    <path d="M1625 137 Q1625 135 1630 135 Q1635 135 1635 137"/>
    <rect x="1700" y="120" width="50" height="35" rx="3"/>
    <rect x="1710" y="130" width="30" height="20" rx="1"/>
    <circle cx="1720" cy="140" r="3"/>
    <rect x="1730" y="135" width="20" height="8" rx="1"/>
    <rect x="1730" y="150" width="20" height="8" rx="1"/>
    <path d="M1735 152 L1745 152"/>
    <circle cx="1400" cy="200" r="6"/>
    <circle cx="1420" cy="200" r="6"/>
    <path d="M1394 210 Q1400 220 1406 210"/>
    <path d="M1414 210 Q1420 220 1426 210"/>
    <path d="M1470 200 Q1480 195 1490 200 Q1500 205 1510 200"/>
    <path d="M1475 205 Q1485 200 1495 205 Q1505 210 1515 205"/>
    <path d="M1480 210 Q1490 205 1500 210 Q1510 215 1520 210"/>
    <path d="M1570 190 Q1570 180 1580 180 Q1590 180 1590 190 Q1590 210 1580 220 Q1570 210 1570 190"/>
    <path d="M1575 200 L1580 205 L1585 195"/>
    <rect x="1600" y="195" width="20" height="15" rx="2"/>
    <path d="M1610 185 Q1610 180 1615 180"/>
    <path d="M1610 185 Q1610 190 1615 190"/>
    <path d="M1660 190 Q1660 180 1670 180 Q1680 180 1680 190 Q1680 210 1670 220 Q1660 210 1660 190"/>
    <path d="M1665 200 L1670 205 L1675 195"/>
    <rect x="1400" y="280" width="30" height="20" rx="3"/>
    <path d="M1415 265 Q1415 255 1420 255"/>
    <path d="M1415 265 Q1415 270 1420 270"/>
    <circle cx="1470" cy="290" r="8"/>
    <path d="M1462 305 Q1470 320 1478 305"/>
    <path d="M1465 300 L1470 305 L1475 295"/>
    <circle cx="1520" cy="290" r="8"/>
    <path d="M1512 305 Q1520 320 1528 305"/>
    <rect x="1570" y="285" width="40" height="10" rx="2"/>
    <path d="M1575 290 L1585 290 M1590 290 L1600 290 M1605 290 L1615 290"/>
    <rect x="1650" y="285" width="40" height="10" rx="2"/>
    <path d="M1655 290 L1665 290 M1670 290 L1680 290 M1685 290 L1695 290"/>
    <circle cx="1750" cy="290" r="4"/>
    <path d="M1754 290 L1770 290"/>
    <path d="M1770 285 L1770 295"/>
    <rect x="1800" y="280" width="40" height="25" rx="3"/>
    <circle cx="1815" cy="292" r="4"/>
    <path d="M1805 300 L1825 300"/>
    <path d="M1805 305 L1820 305"/>
    <path d="M1805 310 L1815 310"/>
    <path d="M1400 300 Q1400 280 1420 280 Q1440 280 1440 300 L1440 320 L1400 320 Z"/>
    <rect x="1470" y="285" width="15" height="15" rx="2"/>
    <path d="M1475 290 L1480 295 L1485 285"/>
    <rect x="1520" y="280" width="20" height="35" rx="3"/>
    <rect x="1525" y="290" width="10" height="15" rx="1"/>
    <circle cx="1530" cy="295" r="2"/>
    <circle cx="1532" cy="305" r="1"/>
    <circle cx="1535" cy="305" r="1"/>
    <circle cx="1538" cy="305" r="1"/>
    
    <!-- More patterns for vertical coverage -->
    <rect x="50" y="400" width="40" height="25" rx="3"/>
    <circle cx="65" cy="412" r="4"/>
    <path d="M55 420 L75 420"/>
    <path d="M55 425 L70 425"/>
    <path d="M55 430 L65 430"/>
    <circle cx="150" cy="412" r="8"/>
    <path d="M150 408 L150 416 M146 412 L154 412"/>
    <rect x="220" y="408" width="20" height="15" rx="2"/>
    <path d="M230 400 Q230 395 235 395"/>
    <circle cx="280" cy="412" r="3"/>
    <path d="M283 412 L295 412"/>
    <path d="M295 410 L295 414"/>
    <rect x="320" y="408" width="20" height="15" rx="2"/>
    <path d="M330 400 Q330 395 335 395"/>
    <path d="M330 400 Q330 405 335 405"/>
    <rect x="50" y="470" width="40" height="25" rx="2"/>
    <path d="M50 475 L70 485 L90 475"/>
    <rect x="65" y="480" width="10" height="8" rx="1"/>
    <path d="M70 482 Q70 480 75 480 Q80 480 80 482"/>
    <circle cx="150" cy="482" r="3"/>
    <path d="M153 482 L165 482"/>
    <path d="M165 480 L165 484"/>
    <rect x="200" y="470" width="50" height="30" rx="3"/>
    <rect x="210" y="480" width="30" height="15" rx="1"/>
    <rect x="220" y="485" width="10" height="6" rx="1"/>
    <path d="M225 487 Q225 485 230 485 Q235 485 235 487"/>
    <rect x="300" y="470" width="50" height="35" rx="3"/>
    <rect x="310" y="480" width="30" height="20" rx="1"/>
    <circle cx="320" cy="490" r="3"/>
    <rect x="330" y="485" width="20" height="8" rx="1"/>
    <rect x="330" y="500" width="20" height="8" rx="1"/>
    <path d="M335 502 L345 502"/>
    <circle cx="50" cy="550" r="6"/>
    <circle cx="70" cy="550" r="6"/>
    <path d="M44 560 Q50 570 56 560"/>
    <path d="M64 560 Q70 570 76 560"/>
    <path d="M120 550 Q130 545 140 550 Q150 555 160 550"/>
    <path d="M125 555 Q135 550 145 555 Q155 560 165 555"/>
    <path d="M130 560 Q140 555 150 560 Q160 565 170 560"/>
    <path d="M220 540 Q220 530 230 530 Q240 530 240 540 Q240 560 230 570 Q220 560 220 540"/>
    <path d="M225 550 L230 555 L235 545"/>
    <rect x="280" y="545" width="20" height="15" rx="2"/>
    <path d="M290 535 Q290 530 295 530"/>
    <path d="M290 535 Q290 540 295 540"/>
    <path d="M330 540 Q330 530 340 530 Q350 530 350 540 Q350 560 340 570 Q330 560 330 540"/>
    <path d="M335 550 L340 555 L345 545"/>
    <rect x="50" y="630" width="30" height="20" rx="3"/>
    <path d="M65 615 Q65 605 70 605"/>
    <path d="M65 615 Q65 620 70 620"/>
    <circle cx="120" cy="640" r="8"/>
    <path d="M112 655 Q120 670 128 655"/>
    <path d="M115 650 L120 655 L125 645"/>
    <circle cx="170" cy="640" r="8"/>
    <path d="M162 655 Q170 670 178 655"/>
    <rect x="220" y="635" width="40" height="10" rx="2"/>
    <path d="M225 640 L235 640 M240 640 L250 640 M255 640 L265 640"/>
    <rect x="300" y="635" width="40" height="10" rx="2"/>
    <path d="M305 640 L315 640 M320 640 L330 640 M335 640 L345 640"/>
    <circle cx="380" cy="640" r="4"/>
    <path d="M384 640 L400 640"/>
    <path d="M400 635 L400 645"/>
    <rect x="430" y="630" width="40" height="25" rx="3"/>
    <circle cx="445" cy="642" r="4"/>
    <path d="M435 650 L455 650"/>
    <path d="M435 655 L450 655"/>
    <path d="M435 660 L445 660"/>
    <path d="M500 650 Q500 630 520 630 Q540 630 540 650 L540 670 L500 670 Z"/>
    <rect x="570" y="635" width="15" height="15" rx="2"/>
    <path d="M575 640 L580 645 L585 635"/>
    <rect x="620" y="630" width="20" height="35" rx="3"/>
    <rect x="625" y="640" width="10" height="15" rx="1"/>
    <circle cx="630" cy="645" r="2"/>
    <circle cx="632" cy="655" r="1"/>
    <circle cx="635" cy="655" r="1"/>
    <circle cx="638" cy="655" r="1"/>
    
    <!-- Continue pattern distribution for full coverage -->
    <rect x="800" y="400" width="40" height="25" rx="3"/>
    <circle cx="815" cy="412" r="4"/>
    <path d="M805 420 L825 420"/>
    <path d="M805 425 L820 425"/>
    <path d="M805 430 L815 430"/>
    <circle cx="900" cy="412" r="8"/>
    <path d="M900 408 L900 416 M896 412 L904 412"/>
    <rect x="1000" y="408" width="20" height="15" rx="2"/>
    <path d="M1010 400 Q1010 395 1015 395"/>
    <circle cx="1100" cy="412" r="3"/>
    <path d="M1103 412 L1115 412"/>
    <path d="M1115 410 L1115 414"/>
    <rect x="1200" y="408" width="20" height="15" rx="2"/>
    <path d="M1210 400 Q1210 395 1215 395"/>
    <path d="M1210 400 Q1210 405 1215 405"/>
    <rect x="800" y="470" width="40" height="25" rx="2"/>
    <path d="M800 475 L820 485 L840 475"/>
    <rect x="815" y="480" width="10" height="8" rx="1"/>
    <path d="M820 482 Q820 480 825 480 Q830 480 830 482"/>
    <circle cx="900" cy="482" r="3"/>
    <path d="M903 482 L915 482"/>
    <path d="M915 480 L915 484"/>
    <rect x="1000" y="470" width="50" height="30" rx="3"/>
    <rect x="1010" y="480" width="30" height="15" rx="1"/>
    <rect x="1020" y="485" width="10" height="6" rx="1"/>
    <path d="M1025 487 Q1025 485 1030 485 Q1035 485 1035 487"/>
    <rect x="1100" y="470" width="50" height="35" rx="3"/>
    <rect x="1110" y="480" width="30" height="20" rx="1"/>
    <circle cx="1120" cy="490" r="3"/>
    <rect x="1130" y="485" width="20" height="8" rx="1"/>
    <rect x="1130" y="500" width="20" height="8" rx="1"/>
    <path d="M1135 502 L1145 502"/>
    <circle cx="800" cy="550" r="6"/>
    <circle cx="820" cy="550" r="6"/>
    <path d="M794 560 Q800 570 806 560"/>
    <path d="M814 560 Q820 570 826 560"/>
    <path d="M870 550 Q880 545 890 550 Q900 555 910 550"/>
    <path d="M875 555 Q885 550 895 555 Q905 560 915 555"/>
    <path d="M880 560 Q890 555 900 560 Q910 565 920 560"/>
    <path d="M970 540 Q970 530 980 530 Q990 530 990 540 Q990 560 980 570 Q970 560 970 540"/>
    <path d="M975 550 L980 555 L985 545"/>
    <rect x="1000" y="545" width="20" height="15" rx="2"/>
    <path d="M1010 535 Q1010 530 1015 530"/>
    <path d="M1010 535 Q1010 540 1015 540"/>
    <path d="M1060 540 Q1060 530 1070 530 Q1080 530 1080 540 Q1080 560 1070 570 Q1060 560 1060 540"/>
    <path d="M1065 550 L1070 555 L1075 545"/>
    <rect x="800" y="630" width="30" height="20" rx="3"/>
    <path d="M815 615 Q815 605 820 605"/>
    <path d="M815 615 Q815 620 820 620"/>
    <circle cx="870" cy="640" r="8"/>
    <path d="M862 655 Q870 670 878 655"/>
    <path d="M865 650 L870 655 L875 645"/>
    <circle cx="920" cy="640" r="8"/>
    <path d="M912 655 Q920 670 928 655"/>
    <rect x="970" y="635" width="40" height="10" rx="2"/>
    <path d="M975 640 L985 640 M990 640 L1000 640 M1005 640 L1015 640"/>
    <rect x="1050" y="635" width="40" height="10" rx="2"/>
    <path d="M1055 640 L1065 640 M1070 640 L1080 640 M1085 640 L1095 640"/>
    <circle cx="1150" cy="640" r="4"/>
    <path d="M1154 640 L1170 640"/>
    <path d="M1170 635 L1170 645"/>
    <rect x="1200" y="630" width="40" height="25" rx="3"/>
    <circle cx="1215" cy="642" r="4"/>
    <path d="M1205 650 L1225 650"/>
    <path d="M1205 655 L1220 655"/>
    <path d="M1205 660 L1215 660"/>
    <path d="M800 650 Q800 630 820 630 Q840 630 840 650 L840 670 L800 670 Z"/>
    <rect x="870" y="635" width="15" height="15" rx="2"/>
    <path d="M875 640 L880 645 L885 635"/>
    <rect x="920" y="630" width="20" height="35" rx="3"/>
    <rect x="925" y="640" width="10" height="15" rx="1"/>
    <circle cx="930" cy="645" r="2"/>
    <circle cx="932" cy="655" r="1"/>
    <circle cx="935" cy="655" r="1"/>
    <circle cx="938" cy="655" r="1"/>
    
    <!-- Additional vertical patterns -->
    <rect x="1400" y="400" width="40" height="25" rx="3"/>
    <circle cx="1415" cy="412" r="4"/>
    <path d="M1405 420 L1425 420"/>
    <path d="M1405 425 L1420 425"/>
    <path d="M1405 430 L1415 430"/>
    <circle cx="1500" cy="412" r="8"/>
    <path d="M1500 408 L1500 416 M1496 412 L1504 412"/>
    <rect x="1600" y="408" width="20" height="15" rx="2"/>
    <path d="M1610 400 Q1610 395 1615 395"/>
    <circle cx="1700" cy="412" r="3"/>
    <path d="M1703 412 L1715 412"/>
    <path d="M1715 410 L1715 414"/>
    <rect x="1800" y="408" width="20" height="15" rx="2"/>
    <path d="M1810 400 Q1810 395 1815 395"/>
    <path d="M1810 400 Q1810 405 1815 405"/>
    <rect x="1400" y="470" width="40" height="25" rx="2"/>
    <path d="M1400 475 L1420 485 L1440 475"/>
    <rect x="1415" y="480" width="10" height="8" rx="1"/>
    <path d="M1420 482 Q1420 480 1425 480 Q1430 480 1430 482"/>
    <circle cx="1500" cy="482" r="3"/>
    <path d="M1503 482 L1515 482"/>
    <path d="M1515 480 L1515 484"/>
    <rect x="1600" y="470" width="50" height="30" rx="3"/>
    <rect x="1610" y="480" width="30" height="15" rx="1"/>
    <rect x="1620" y="485" width="10" height="6" rx="1"/>
    <path d="M1625 487 Q1625 485 1630 485 Q1635 485 1635 487"/>
    <rect x="1700" y="470" width="50" height="35" rx="3"/>
    <rect x="1710" y="480" width="30" height="20" rx="1"/>
    <circle cx="1720" cy="490" r="3"/>
    <rect x="1730" y="485" width="20" height="8" rx="1"/>
    <rect x="1730" y="500" width="20" height="8" rx="1"/>
    <path d="M1735 502 L1745 502"/>
    <circle cx="1400" cy="550" r="6"/>
    <circle cx="1420" cy="550" r="6"/>
    <path d="M1394 560 Q1400 570 1406 560"/>
    <path d="M1414 560 Q1420 570 1426 560"/>
    <path d="M1470 550 Q1480 545 1490 550 Q1500 555 1510 550"/>
    <path d="M1475 555 Q1485 550 1495 555 Q1505 560 1515 555"/>
    <path d="M1480 560 Q1490 555 1500 560 Q1510 565 1520 560"/>
    <path d="M1570 540 Q1570 530 1580 530 Q1590 530 1590 540 Q1590 560 1580 570 Q1570 560 1570 540"/>
    <path d="M1575 550 L1580 555 L1585 545"/>
    <rect x="1600" y="545" width="20" height="15" rx="2"/>
    <path d="M1610 535 Q1610 530 1615 530"/>
    <path d="M1610 535 Q1610 540 1615 540"/>
    <path d="M1660 540 Q1660 530 1670 530 Q1680 530 1680 540 Q1680 560 1670 570 Q1660 560 1660 540"/>
    <path d="M1665 550 L1670 555 L1675 545"/>
    <rect x="1400" y="630" width="30" height="20" rx="3"/>
    <path d="M1415 615 Q1415 605 1420 605"/>
    <path d="M1415 615 Q1415 620 1420 620"/>
    <circle cx="1470" cy="640" r="8"/>
    <path d="M1462 655 Q1470 670 1478 655"/>
    <path d="M1465 650 L1470 655 L1475 645"/>
    <circle cx="1520" cy="640" r="8"/>
    <path d="M1512 655 Q1520 670 1528 655"/>
    <rect x="1570" y="635" width="40" height="10" rx="2"/>
    <path d="M1575 640 L1585 640 M1590 640 L1600 640 M1605 640 L1615 640"/>
    <rect x="1650" y="635" width="40" height="10" rx="2"/>
    <path d="M1655 640 L1665 640 M1670 640 L1680 640 M1685 640 L1695 640"/>
    <circle cx="1750" cy="640" r="4"/>
    <path d="M1754 640 L1770 640"/>
    <path d="M1770 635 L1770 645"/>
    <rect x="1800" y="630" width="40" height="25" rx="3"/>
    <circle cx="1815" cy="642" r="4"/>
    <path d="M1805 650 L1825 650"/>
    <path d="M1805 655 L1820 655"/>
    <path d="M1805 660 L1815 660"/>
    <path d="M1400 650 Q1400 630 1420 630 Q1440 630 1440 650 L1440 670 L1400 670 Z"/>
    <rect x="1470" y="635" width="15" height="15" rx="2"/>
    <path d="M1475 640 L1480 645 L1485 635"/>
    <rect x="1520" y="630" width="20" height="35" rx="3"/>
    <rect x="1525" y="640" width="10" height="15" rx="1"/>
    <circle cx="1530" cy="645" r="2"/>
    <circle cx="1532" cy="655" r="1"/>
    <circle cx="1535" cy="655" r="1"/>
    <circle cx="1538" cy="655" r="1"/>
    
    <!-- More patterns for complete coverage -->
    <rect x="50" y="800" width="40" height="25" rx="3"/>
    <circle cx="65" cy="812" r="4"/>
    <path d="M55 820 L75 820"/>
    <path d="M55 825 L70 825"/>
    <path d="M55 830 L65 830"/>
    <circle cx="150" cy="812" r="8"/>
    <path d="M150 808 L150 816 M146 812 L154 812"/>
    <rect x="220" y="808" width="20" height="15" rx="2"/>
    <path d="M230 800 Q230 795 235 795"/>
    <circle cx="280" cy="812" r="3"/>
    <path d="M283 812 L295 812"/>
    <path d="M295 810 L295 814"/>
    <rect x="320" y="808" width="20" height="15" rx="2"/>
    <path d="M330 800 Q330 795 335 795"/>
    <path d="M330 800 Q330 805 335 805"/>
    <rect x="50" y="870" width="40" height="25" rx="2"/>
    <path d="M50 875 L70 885 L90 875"/>
    <rect x="65" y="880" width="10" height="8" rx="1"/>
    <path d="M70 882 Q70 880 75 880 Q80 880 80 882"/>
    <circle cx="150" cy="882" r="3"/>
    <path d="M153 882 L165 882"/>
    <path d="M165 880 L165 884"/>
    <rect x="200" y="870" width="50" height="30" rx="3"/>
    <rect x="210" y="880" width="30" height="15" rx="1"/>
    <rect x="220" y="885" width="10" height="6" rx="1"/>
    <path d="M225 887 Q225 885 230 885 Q235 885 235 887"/>
    <rect x="300" y="870" width="50" height="35" rx="3"/>
    <rect x="310" y="880" width="30" height="20" rx="1"/>
    <circle cx="320" cy="890" r="3"/>
    <rect x="330" y="885" width="20" height="8" rx="1"/>
    <rect x="330" y="900" width="20" height="8" rx="1"/>
    <path d="M335 902 L345 902"/>
    <circle cx="50" cy="950" r="6"/>
    <circle cx="70" cy="950" r="6"/>
    <path d="M44 960 Q50 970 56 960"/>
    <path d="M64 960 Q70 970 76 960"/>
    <path d="M120 950 Q130 945 140 950 Q150 955 160 950"/>
    <path d="M125 955 Q135 950 145 955 Q155 960 165 955"/>
    <path d="M130 960 Q140 955 150 960 Q160 965 170 960"/>
    <path d="M220 940 Q220 930 230 930 Q240 930 240 940 Q240 960 230 970 Q220 960 220 940"/>
    <path d="M225 950 L230 955 L235 945"/>
    <rect x="280" y="945" width="20" height="15" rx="2"/>
    <path d="M290 935 Q290 930 295 930"/>
    <path d="M290 935 Q290 940 295 940"/>
    <path d="M330 940 Q330 930 340 930 Q350 930 350 940 Q350 960 340 970 Q330 960 330 940"/>
    <path d="M335 950 L340 955 L345 945"/>
    <rect x="50" y="1030" width="30" height="20" rx="3"/>
    <path d="M65 1015 Q65 1005 70 1005"/>
    <path d="M65 1015 Q65 1020 70 1020"/>
    <circle cx="120" cy="1040" r="8"/>
    <path d="M112 1055 Q120 1070 128 1055"/>
    <path d="M115 1050 L120 1055 L125 1045"/>
    <circle cx="170" cy="1040" r="8"/>
    <path d="M162 1055 Q170 1070 178 1055"/>
    <rect x="220" y="1035" width="40" height="10" rx="2"/>
    <path d="M225 1040 L235 1040 M240 1040 L250 1040 M255 1040 L265 1040"/>
    <rect x="300" y="1035" width="40" height="10" rx="2"/>
    <path d="M305 1040 L315 1040 M320 1040 L330 1040 M335 1040 L345 1040"/>
    <circle cx="380" cy="1040" r="4"/>
    <path d="M384 1040 L400 1040"/>
    <path d="M400 1035 L400 1045"/>
    <rect x="430" y="1030" width="40" height="25" rx="3"/>
    <circle cx="445" cy="1042" r="4"/>
    <path d="M435 1050 L455 1050"/>
    <path d="M435 1055 L450 1055"/>
    <path d="M435 1060 L445 1060"/>
    <path d="M500 1050 Q500 1030 520 1030 Q540 1030 540 1050 L540 1070 L500 1070 Z"/>
    <rect x="570" y="1035" width="15" height="15" rx="2"/>
    <path d="M575 1040 L580 1045 L585 1035"/>
    <rect x="620" y="1030" width="20" height="35" rx="3"/>
    <rect x="625" y="1040" width="10" height="15" rx="1"/>
    <circle cx="630" cy="1045" r="2"/>
    <circle cx="632" cy="1055" r="1"/>
    <circle cx="635" cy="1055" r="1"/>
    <circle cx="638" cy="1055" r="1"/>
  </g>
</svg>
